<?xml version="1.0" encoding="UTF-8"?>
<!DOCTYPE svg PUBLIC "-//W3C//DTD SVG 1.1//EN" "http://www.w3.org/Graphics/SVG/1.1/DTD/svg11.dtd">
<svg version="1.1" xmlns="http://www.w3.org/2000/svg" xmlns:xlink="http://www.w3.org/1999/xlink" x="0" y="0" width="1500" height="612" viewBox="0, 0, 1500, 612">
  <g id="Diagram">
    <path d="M67.171,45 L183.906,45 C195.995,45 205.794,58.464 205.794,75.073 L205.794,165.293 C205.794,181.902 195.995,195.366 183.906,195.366 L67.171,195.366 C55.082,195.366 45.283,181.902 45.283,165.293 L45.283,75.073 C45.283,58.464 55.082,45 67.171,45 z" fill="#ABE8FF"/>
    <path d="M67.171,265.537 L183.906,265.537 C195.995,265.537 205.794,279.001 205.794,295.61 L205.794,385.829 C205.794,402.438 195.995,415.902 183.906,415.902 L67.171,415.902 C55.082,415.902 45.283,402.438 45.283,385.829 L45.283,295.61 C45.283,279.001 55.082,265.537 67.171,265.537 z" fill="#ABE8FF"/>
    <path d="M260.514,155.268 L377.25,155.268 C389.338,155.268 399.138,168.733 399.138,185.341 L399.138,275.561 C399.138,292.17 389.338,305.634 377.25,305.634 L260.514,305.634 C248.426,305.634 238.626,292.17 238.626,275.561 L238.626,185.341 C238.626,168.733 248.426,155.268 260.514,155.268 z" fill="#ABE8FF"/>
    <path d="M453.858,155.268 L570.594,155.268 C582.682,155.268 592.482,168.733 592.482,185.341 L592.482,275.561 C592.482,292.17 582.682,305.634 570.594,305.634 L453.858,305.634 C441.77,305.634 431.97,292.17 431.97,275.561 L431.97,185.341 C431.97,168.733 441.77,155.268 453.858,155.268 z" fill="#ABE8FF"/>
    <path d="M645.378,155.268 L762.113,155.268 C774.202,155.268 784.001,168.733 784.001,185.341 L784.001,275.561 C784.001,292.17 774.202,305.634 762.113,305.634 L645.378,305.634 C633.289,305.634 623.49,292.17 623.49,275.561 L623.49,185.341 C623.49,168.733 633.289,155.268 645.378,155.268 z" fill="#ABE8FF"/>
    <path d="M1136.033,155.268 L1252.768,155.268 C1264.857,155.268 1274.656,168.733 1274.656,185.341 L1274.656,275.561 C1274.656,292.17 1264.857,305.634 1252.768,305.634 L1136.033,305.634 C1123.944,305.634 1114.145,292.17 1114.145,275.561 L1114.145,185.341 C1114.145,168.733 1123.944,155.268 1136.033,155.268 z" fill="#ABE8FF"/>
    <g>
      <path d="M831.425,121.436 L948.161,121.436 C960.249,121.436 970.049,134.9 970.049,151.509 L970.049,241.729 C970.049,258.338 960.249,271.802 948.161,271.802 L831.425,271.802 C819.337,271.802 809.537,258.338 809.537,241.729 L809.537,151.509 C809.537,134.9 819.337,121.436 831.425,121.436 z" fill="#2CC5FF"/>
      <path d="M840.545,141.485 L957.281,141.485 C969.369,141.485 979.169,154.949 979.169,171.558 L979.169,261.777 C979.169,278.386 969.369,291.851 957.281,291.851 L840.545,291.851 C828.457,291.851 818.657,278.386 818.657,261.777 L818.657,171.558 C818.657,154.949 828.457,141.485 840.545,141.485 z" fill="#74D8FE"/>
      <path d="M851.489,155.268 L968.225,155.268 C980.313,155.268 990.113,168.733 990.113,185.341 L990.113,275.561 C990.113,292.17 980.313,305.634 968.225,305.634 L851.489,305.634 C839.401,305.634 829.601,292.17 829.601,275.561 L829.601,185.341 C829.601,168.733 839.401,155.268 851.489,155.268 z" fill="#ABE8FF"/>
    </g>
    <path d="M1329.376,155.268 L1446.112,155.268 C1458.201,155.268 1468,168.733 1468,185.341 L1468,275.561 C1468,292.17 1458.201,305.634 1446.112,305.634 L1329.376,305.634 C1317.288,305.634 1307.488,292.17 1307.488,275.561 L1307.488,185.341 C1307.488,168.733 1317.288,155.268 1329.376,155.268 z" fill="#ABE8FF"/>
    <path d="M1024.769,45 L1081.313,45 L1081.313,415.902 L1024.769,415.902 L1024.769,45 z" fill="#ABE8FF"/>
    <path d="M333.474,380.817 L497.634,380.817 L497.634,456 L333.474,456 L333.474,380.817 z" fill="#ABE8FF"/>
    <text transform="matrix(1, 0, 0, 1, 125.538, 120.183)">
      <tspan x="-57.568" y="8.933" font-family="HelveticaNeue" font-size="28" fill="#000000">SQL AST</tspan>
    </text>
    <text transform="matrix(1, 0, 0, 1, 125.538, 336.22)">
      <tspan x="-68.978" y="9.692" font-family="HelveticaNeue" font-size="28" fill="#000000">DataFrame</tspan>
    </text>
    <text transform="matrix(1, 0, 0, 1, 318.882, 237.951)">
      <tspan x="-70.784" y="-26.55" font-family="HelveticaNeue" font-size="28" fill="#000000">Unresolved</tspan>
      <tspan x="-45.108" y="7.45" font-family="HelveticaNeue" font-size="28" fill="#000000">Logical</tspan>
      <tspan x="-27.482" y="41.45" font-family="HelveticaNeue" font-size="28" fill="#000000">Plan</tspan>
    </text>
    <text transform="matrix(1, 0, 0, 1, 399.554, 418.409)">
      <tspan x="-48.734" y="5.698" font-family="HelveticaNeue" font-size="28" fill="#000000">Catalog</tspan>
    </text>
    <text transform="matrix(1, 0, 0, 1, 512.226, 242.451)">
      <tspan x="-45.108" y="-16.326" font-family="HelveticaNeue" font-size="28" fill="#000000">Logical</tspan>
      <tspan x="-27.482" y="17.674" font-family="HelveticaNeue" font-size="28" fill="#000000">Plan</tspan>
    </text>
    <text transform="matrix(1, 0, 0, 1, 704.657, 238.951)">
      <tspan x="-64.05" y="-29.742" font-family="HelveticaNeue" font-size="28" fill="#000000">Optimized</tspan>
      <tspan x="-45.108" y="4.258" font-family="HelveticaNeue" font-size="28" fill="#000000">Logical</tspan>
      <tspan x="-27.482" y="38.258" font-family="HelveticaNeue" font-size="28" fill="#000000">Plan</tspan>
    </text>
    <text transform="matrix(1, 0, 0, 1, 910.208, 230.451)">
      <tspan x="-52.108" y="-11.851" font-family="HelveticaNeue" font-size="28" fill="#000000">Physical</tspan>
      <tspan x="-34.482" y="22.149" font-family="HelveticaNeue" font-size="28" fill="#000000">Plans</tspan>
    </text>
    <text transform="matrix(1, 0, 0, 1, 1194.401, 240.123)">
      <tspan x="-54.964" y="-28.571" font-family="HelveticaNeue" font-size="28" fill="#000000">Selected</tspan>
      <tspan x="-52.108" y="5.429" font-family="HelveticaNeue" font-size="28" fill="#000000">Physical</tspan>
      <tspan x="-27.482" y="39.429" font-family="HelveticaNeue" font-size="28" fill="#000000">Plan</tspan>
    </text>
    <g>
      <path d="M206.294,121.936 L235.013,177.836" fill-opacity="0" stroke="#000000" stroke-width="1"/>
      <path d="M232.345,179.207 L238.669,184.952 L237.682,176.465 z" fill="#000000" fill-opacity="1" stroke="#000000" stroke-width="1" stroke-opacity="1"/>
    </g>
    <g>
      <path d="M206.294,341.22 L235.524,274.284" fill-opacity="0" stroke="#000000" stroke-width="1"/>
      <path d="M238.274,275.485 L238.726,266.953 L232.775,273.084 z" fill="#000000" fill-opacity="1" stroke="#000000" stroke-width="1" stroke-opacity="1"/>
    </g>
    <g>
      <path d="M399.638,230.951 L423.47,230.951" fill-opacity="0" stroke="#000000" stroke-width="1"/>
      <path d="M423.47,233.951 L431.47,230.951 L423.47,227.951 z" fill="#000000" fill-opacity="1" stroke="#000000" stroke-width="1" stroke-opacity="1"/>
    </g>
    <g>
      <path d="M592.982,230.951 L616.814,230.951" fill-opacity="0" stroke="#000000" stroke-width="1"/>
      <path d="M616.814,233.951 L624.814,230.951 L616.814,227.951 z" fill="#000000" fill-opacity="1" stroke="#000000" stroke-width="1" stroke-opacity="1"/>
    </g>
    <g>
      <path d="M784.501,230.951 L808.333,230.951" fill-opacity="0" stroke="#000000" stroke-width="1"/>
      <path d="M808.333,233.951 L816.333,230.951 L808.333,227.951 z" fill="#000000" fill-opacity="1" stroke="#000000" stroke-width="1" stroke-opacity="1"/>
    </g>
    <g>
      <path d="M992.437,230.951 L1016.269,230.951" fill-opacity="0" stroke="#000000" stroke-width="1"/>
      <path d="M1016.269,233.951 L1024.269,230.951 L1016.269,227.951 z" fill="#000000" fill-opacity="1" stroke="#000000" stroke-width="1" stroke-opacity="1"/>
    </g>
    <g>
      <path d="M1081.813,230.951 L1105.645,230.951" fill-opacity="0" stroke="#000000" stroke-width="1"/>
      <path d="M1105.645,233.951 L1113.645,230.951 L1105.645,227.951 z" fill="#000000" fill-opacity="1" stroke="#000000" stroke-width="1" stroke-opacity="1"/>
    </g>
    <g>
      <path d="M1275.156,230.951 L1298.988,230.951" fill-opacity="0" stroke="#000000" stroke-width="1"/>
      <path d="M1298.988,233.951 L1306.988,230.951 L1298.988,227.951 z" fill="#000000" fill-opacity="1" stroke="#000000" stroke-width="1" stroke-opacity="1"/>
    </g>
    <g>
      <path d="M414.23,381.317 L414.23,261.253" fill-opacity="0" stroke="#000000" stroke-width="1"/>
      <path d="M417.23,261.253 L414.23,253.253 L411.23,261.253 z" fill="#000000" fill-opacity="1" stroke="#000000" stroke-width="1" stroke-opacity="1"/>
    </g>
    <text transform="matrix(0.001, -1, 1, 0.001, 1053.041, 223.075)">
      <tspan x="-72.604" y="10" font-family="HelveticaNeue" font-size="28" fill="#000000">Cost Model</tspan>
    </text>
    <text transform="matrix(1, 0, 0, 1, 1387.744, 230.451)">
      <tspan x="-36.302" y="10" font-family="HelveticaNeue" font-size="28" fill="#000000">RDDs</tspan>
    </text>
  </g>
  <g id="UDFs">
    <g>
      <path d="M512.784,388.965 C528.238,381.834 566.388,388.127 607.313,405.722" fill-opacity="0" stroke="#000000" stroke-width="1"/>
      <path d="M510.737,386.772 L506.935,394.424 L514.831,391.158 z" fill="#000000" fill-opacity="1" stroke="#000000" stroke-width="1" stroke-opacity="1"/>
    </g>
    <text transform="matrix(1, 0, 0, 1, 642.832, 418.409)">
      <tspan x="-30" y="6" font-family="HelveticaNeue" font-size="24" fill="#000000">UDFs</tspan>
    </text>
  </g>
</svg>
